<svg width="35" height="31" viewBox="0 0 35 31" fill="none" xmlns="http://www.w3.org/2000/svg">
<path d="M17.8308 13.9887C17.7121 13.9885 17.5962 13.9531 17.4975 13.887C17.3989 13.8209 17.3221 13.7271 17.2768 13.6174C17.2314 13.5077 17.2196 13.387 17.2428 13.2706C17.266 13.1542 17.3231 13.0472 17.407 12.9633L19.3238 11.0492C19.559 10.8141 19.939 10.8141 20.1715 11.0492C20.4066 11.2844 20.4066 11.6645 20.1715 11.8996L18.2574 13.8164C18.1398 13.9312 17.984 13.9887 17.8308 13.9887Z" fill="#020202"/>
<path d="M21.3227 13.3461C21.1668 13.3461 21.0137 13.2887 20.8961 13.1711L17.9676 10.2426C17.7325 10.0074 17.7325 9.62734 17.9676 9.39219C18.2028 9.15703 18.5829 9.15703 18.8153 9.39219L21.7465 12.3234C21.9817 12.5586 21.9817 12.9387 21.7465 13.1738C21.629 13.2887 21.4758 13.3461 21.3227 13.3461Z" fill="#020202"/>
<path d="M10.8254 9.39767H14.0711V21.4945H10.8254V9.39767ZM15.2032 12.7035H18.4489V22.3969H15.2032V12.7035Z" fill="#020202"/>
<path d="M11.7988 9.99924H13.1906V8.05237C13.1934 8.02502 13.2289 7.30862 12.6957 6.73166C12.2938 6.30237 11.7113 6.08362 10.9648 6.08362V7.47268C11.1973 7.47268 11.509 7.50823 11.6676 7.67229C11.8043 7.80901 11.8016 8.01682 11.8016 8.01682L11.7988 9.99924Z" fill="#020202"/>
<path d="M27.3164 15.3258C26.8406 15.3258 26.4551 14.9375 26.4551 14.4644V8.36951C26.4551 7.89646 26.8406 7.50818 27.3164 7.50818H28.1723C28.648 7.50818 29.0363 7.89646 29.0363 8.36951V14.4644C29.0363 14.9375 28.648 15.3258 28.1723 15.3258H27.3164Z" fill="#020202"/>
<path d="M18.3066 0.0925903V1.79611H27.9207L29.7254 3.69923H32.5281V0.0925903H18.3066Z" fill="#FBB50D"/>
<path d="M30.3215 2.29651H31.7297V15.066H30.3215V2.29651Z" fill="#FBB50D"/>
<path d="M19.1652 17.0156L17.8418 16.1844C19.693 13.2367 22.873 11.4785 26.3539 11.4785C29.3727 11.4785 32.2027 12.8184 34.1168 15.1535L32.9109 16.1434C31.2949 14.1691 28.9023 13.0398 26.3539 13.0398C23.4145 13.0398 20.7266 14.5273 19.1652 17.0156Z" fill="#FBB50D"/>
<path d="M15.2032 21.7133V12.7117H4.44614C2.62231 12.7117 1.3645 13.9176 1.3645 15.6895V23.9746H33.4469V21.7133H15.2032Z" fill="#FBB50D"/>
<path d="M9.75088 25.2297C9.75088 27.8957 7.58799 30.0559 4.92197 30.0559C2.25322 30.0559 0.090332 27.8957 0.090332 25.2297C0.090332 22.5609 2.25322 20.4062 4.92197 20.4062C7.58799 20.4062 9.75088 22.5609 9.75088 25.2297Z" fill="#020202"/>
<path d="M4.91909 27.1629C5.98828 27.1629 6.85503 26.2974 6.85503 25.2297C6.85503 24.162 5.98828 23.2965 4.91909 23.2965C3.8499 23.2965 2.98315 24.162 2.98315 25.2297C2.98315 26.2974 3.8499 27.1629 4.91909 27.1629Z" fill="#FBB50D"/>
<path d="M34.9098 21.5055C34.9098 26.2305 31.0762 30.0559 26.3567 30.0559C21.629 30.0559 17.7981 26.2305 17.7981 21.5055C17.7981 16.7805 21.629 12.9578 26.3567 12.9578C31.0762 12.9578 34.9098 16.7805 34.9098 21.5055Z" fill="#020202"/>
<path d="M30.4554 21.5055C30.4554 23.7695 28.6206 25.6043 26.3565 25.6043C24.0952 25.6043 22.2632 23.7695 22.2632 21.5055C22.2632 19.2414 24.0952 17.4149 26.3565 17.4149C28.6206 17.4149 30.4554 19.2414 30.4554 21.5055Z" fill="#FBB50D"/>
</svg>
