<svg width="38" height="34" viewBox="0 0 38 34" fill="none" xmlns="http://www.w3.org/2000/svg">
<path d="M15.4939 22.9382L20.6791 24.6666C20.6791 24.6666 33.6421 22.074 35.3705 22.074C37.0988 22.074 37.0988 23.8024 35.3705 25.5308C33.6421 27.2592 27.5927 32.4444 22.4075 32.4444C17.2223 32.4444 13.7655 29.8518 10.3087 29.8518C6.85193 29.8518 1.66675 29.8518 1.66675 29.8518" fill="#FBB50D"/>
<path d="M15.4939 22.9382L20.6791 24.6666C20.6791 24.6666 33.6421 22.074 35.3705 22.074C37.0988 22.074 37.0988 23.8024 35.3705 25.5308C33.6421 27.2592 27.5927 32.4444 22.4075 32.4444C17.2223 32.4444 13.7655 29.8518 10.3087 29.8518C6.85193 29.8518 1.66675 29.8518 1.66675 29.8518" stroke="#020202" stroke-width="2.66667" stroke-linecap="round" stroke-linejoin="round"/>
<path d="M1.66675 19.4815C3.39514 17.7531 6.85193 15.1605 10.3087 15.1605C13.7655 15.1605 21.9754 18.6173 23.2717 20.3457C24.568 22.0741 20.6791 24.6667 20.6791 24.6667" fill="#FBB50D"/>
<path d="M1.66675 19.4815C3.39514 17.7531 6.85193 15.1605 10.3087 15.1605C13.7655 15.1605 21.9754 18.6173 23.2717 20.3457C24.568 22.0741 20.6791 24.6667 20.6791 24.6667" stroke="#020202" stroke-width="2.66667" stroke-linecap="round" stroke-linejoin="round"/>
<path d="M12.0371 9.97529V3.06171C12.0371 2.10714 12.8109 1.33331 13.7655 1.33331H34.5062C35.4608 1.33331 36.2346 2.10714 36.2346 3.06171V16.8889" fill="#FBB50D"/>
<path d="M12.0371 9.97529V3.06171C12.0371 2.10714 12.8109 1.33331 13.7655 1.33331H34.5062C35.4608 1.33331 36.2346 2.10714 36.2346 3.06171V16.8889" stroke="#020202" stroke-width="2.66667" stroke-linecap="round" stroke-linejoin="round"/>
<path d="M28.4569 1.33331H19.8149V9.11109H28.4569V1.33331Z" fill="#FBB50D" stroke="#020202" stroke-width="2.66667" stroke-linecap="round" stroke-linejoin="round"/>
</svg>
