<svg width="39" height="39" viewBox="0 0 39 39" fill="none" xmlns="http://www.w3.org/2000/svg">
<path d="M1.91675 8.91666H36.9167V15.9167L35.6931 16.6509C33.7534 17.8147 31.3301 17.8147 29.3904 16.6509L28.1667 15.9167L26.9431 16.6509C25.0034 17.8147 22.5801 17.8147 20.6404 16.6509L19.4167 15.9167L18.1931 16.6509C16.2534 17.8147 13.8301 17.8147 11.8904 16.6509L10.6667 15.9167L9.44306 16.6509C7.50336 17.8147 5.08014 17.8147 3.14046 16.6509L1.91675 15.9167V8.91666Z" fill="#FBB50D" stroke="#020202" stroke-width="2.66667" stroke-linecap="round" stroke-linejoin="round"/>
<path d="M5.41675 18.0945V36.9167H33.4167V17.6667" fill="#FBB50D"/>
<path d="M5.41675 18.0945V36.9167H33.4167V17.6667" stroke="#020202" stroke-width="2.66667" stroke-linecap="round" stroke-linejoin="round"/>
<path d="M5.41675 8.76111V1.91669H33.4167V8.91669" fill="#FBB50D"/>
<path d="M5.41675 8.76111V1.91669H33.4167V8.91669" stroke="#020202" stroke-width="2.66667" stroke-linecap="round" stroke-linejoin="round"/>
<path d="M23.7917 26.4167H15.0417V36.9167H23.7917V26.4167Z" fill="#FBB50D" stroke="#020202" stroke-width="2.66667" stroke-linecap="round" stroke-linejoin="round"/>
</svg>
