<svg width="24" height="17" viewBox="0 0 24 17" fill="none" xmlns="http://www.w3.org/2000/svg">
<path d="M3.00271 10.2129L8.1366 5.07902C8.70019 4.51472 9.46481 4.19733 10.2623 4.19663H13.0298C13.5617 4.19663 14.0718 4.40792 14.4479 4.78401C14.824 5.1601 15.0353 5.67018 15.0353 6.20206C15.0353 6.73393 14.824 7.24401 14.4479 7.6201C14.0718 7.99619 13.5617 8.20748 13.0298 8.20748H10.5231M14.5339 7.52564L18.7152 2.62237C19.0383 2.2643 19.4862 2.04365 19.967 2.00581C20.4478 1.96798 20.9248 2.11584 21.2998 2.41898C21.6749 2.72212 21.9195 3.15748 21.9834 3.63549C22.0473 4.11351 21.9255 4.59781 21.6431 4.98877L17.4317 10.9449C17.156 11.3355 16.7912 11.6548 16.3674 11.8763C15.9437 12.0977 15.4733 12.215 14.9952 12.2183H9.85124C9.58661 12.2181 9.32456 12.2703 9.08018 12.3718C8.83581 12.4734 8.61395 12.6223 8.42739 12.8099L7.01356 14.2238M2 9.21019L8.01627 15.2265" stroke="#FBB50D" stroke-opacity="0.7" stroke-width="2.3" stroke-linecap="round" stroke-linejoin="round"/>
</svg>
