<svg width="20" height="22" viewBox="0 0 20 22" fill="none" xmlns="http://www.w3.org/2000/svg">
<path opacity="0.5" d="M1 9.417C1 6.219 1 4.62 1.378 4.082C1.755 3.545 3.258 3.03 6.265 2.001L6.838 1.805C8.405 1.268 9.188 1 10 1C10.811 1 11.595 1.268 13.162 1.805L13.735 2.001C16.742 3.03 18.245 3.545 18.622 4.082C19 4.62 19 6.22 19 9.417V10.991C19 16.629 14.761 19.366 12.101 20.527C11.38 20.842 11.02 21 10 21C8.98 21 8.62 20.842 7.899 20.527C5.239 19.365 1 16.63 1 10.991V9.417Z" stroke="#FBB50D" stroke-width="2"/>
<path d="M7.5 11.4L8.929 13L12.5 9" stroke="#FBB50D" stroke-width="2" stroke-linecap="round" stroke-linejoin="round"/>
</svg>
